<?xml version="1.0" encoding="utf-8"?>
<!-- Generator: Adobe Illustrator 24.3.0, SVG Export Plug-In . SVG Version: 6.00 Build 0)  -->
<svg version="1.1" id="Layer_1" xmlns="http://www.w3.org/2000/svg" xmlns:xlink="http://www.w3.org/1999/xlink" x="0px" y="0px"
	 viewBox="0 0 300 300" style="enable-background:new 0 0 300 300;" xml:space="preserve">
<style type="text/css">
	.st0{fill:#283543;}
	.st1{fill:url(#SVGID_1_);}
</style>
<g id="a5f30bd4-7d38-4786-b9e4-24bf380e7945" transform="matrix(1.830756745870077,0,0,1.830756745870077,121.9975626431336,130.80451483863342)">
	<path class="st0" d="M-2.4,18.5L-2.4,18.5L-2.4,18.5c-0.1-0.2-0.1-0.5-0.1-1l0,0l0,0c0-0.5,0.2-2,0.6-4.3l0,0l0,0
		c0.4-2.3,0.6-3.8,0.6-4.4l0,0l0,0c0-0.6,0-1-0.1-1.3l0,0l0,0c-0.1-0.3-0.2-0.5-0.3-0.6l0,0L-2,6.7l0-0.3l0,0C-1.3,6.2-0.3,6,1.1,6
		l0,0l0,0c0.1,0.2,0.2,0.4,0.2,0.7l0,0l0,0C2,6.2,2.6,5.9,3.2,5.9l0,0l0,0c0.6,0,1,0.3,1.4,0.8l0,0l0,0c0.4,0.5,0.5,1.5,0.5,2.8l0,0
		l0,0c0,1.3-0.3,2.5-0.8,3.5l0,0l0,0c-0.6,1-1.4,1.5-2.4,1.5l0,0l0,0c-0.5,0-0.9-0.1-1.4-0.3l0,0l0,0c-0.2,1.4-0.3,2.7-0.3,3.8l0,0
		l0,0C-0.5,18.2-1.4,18.4-2.4,18.5z M1.2,12.9L1.2,12.9L1.2,12.9c0.3,0,0.5-0.3,0.7-0.8l0,0l0,0c0.3-0.9,0.5-1.9,0.5-3.2l0,0l0,0
		c0-0.7-0.1-1.1-0.4-1.1l0,0l0,0C1.8,7.8,1.6,7.9,1.4,8l0,0l0,0c-0.1,1-0.3,2.6-0.6,4.8l0,0l0,0C0.9,12.9,1.1,12.9,1.2,12.9z
		 M13.1,6.6L13.1,6.6c-0.2,0.8-0.4,1.8-0.5,2.9l0,0l0,0c-0.2,1.1-0.2,1.9-0.2,2.4l0,0l0,0c0,0.4,0.1,0.7,0.2,0.7l0,0l0.8-0.3
		l0.3,0.9l0,0c-0.3,0.3-0.7,0.6-1.2,0.9l0,0l0,0c-0.5,0.3-0.9,0.4-1.3,0.4l0,0l0,0c-0.7,0-1.1-0.3-1.2-1l0,0l0,0
		c-0.8,0.7-1.5,1-2.1,1l0,0l0,0c-0.6,0-1.1-0.3-1.4-0.8l0,0l0,0c-0.3-0.6-0.5-1.3-0.5-2.4l0,0l0,0c0-1.4,0.3-2.7,0.9-3.7l0,0l0,0
		C7.2,6.4,8,5.9,8.9,5.9l0,0l0,0c0.5,0,1.1,0.2,1.6,0.6l0,0l0,0c0.1-0.2,0.1-0.4,0.2-0.5l0,0l0,0C11.4,6,12.2,6.2,13.1,6.6L13.1,6.6
		z M8.6,11L8.6,11L8.6,11c0,0.6,0,1,0.1,1.2l0,0l0,0c0.1,0.2,0.2,0.2,0.4,0.2l0,0l0,0c0.2,0,0.4-0.1,0.6-0.3l0,0l0,0
		c0-1.5,0.2-3,0.6-4.6l0,0l0,0C10,7.5,9.9,7.5,9.7,7.5l0,0l0,0c-0.2,0-0.4,0.1-0.5,0.4l0,0l0,0C9,8.1,8.9,8.5,8.8,8.9l0,0l0,0
		C8.6,9.7,8.6,10.4,8.6,11z M17.8,13.2L17.8,13.2c-0.3,0.3-0.7,0.7-1.3,0.9l0,0l0,0c-0.5,0.3-1,0.4-1.4,0.4l0,0l0,0
		c-0.4,0-0.8-0.2-1-0.5l0,0l0,0c-0.3-0.3-0.4-0.7-0.4-1.3l0,0l0,0c0-0.6,0.3-2.2,0.8-4.8l0,0l0,0c0.5-2.6,0.8-4.6,0.8-5.9l0,0l0,0
		c0-0.3,0-0.6-0.1-1.1l0,0l0,0C16,0.6,17,0.4,17.8,0.4l0,0l0,0C17.9,0.6,18,1,18,1.4l0,0l0,0c0,0.9-0.3,2.7-0.8,5.6l0,0l0,0
		c-0.5,2.9-0.8,4.5-0.8,5l0,0l0,0c0,0.4,0.1,0.7,0.2,0.7l0,0l0,0c0.1,0,0.3-0.1,0.6-0.2l0,0l0.2-0.1L17.8,13.2z M22.7,1.4L22.7,1.4
		L22.7,1.4c0,0.9-0.3,2.7-0.8,5.4l0,0l0,0c0.9-0.6,1.5-0.9,2-0.9l0,0l0,0c0.5,0,0.9,0.2,1.1,0.5l0,0l0,0c0.2,0.3,0.4,0.7,0.4,1.2
		l0,0l0,0c0,0.5-0.1,1.3-0.3,2.3l0,0l0,0c-0.2,1.1-0.3,1.8-0.3,2.1l0,0l0,0c0,0.3,0,0.5,0.1,0.5l0,0l0.8-0.3l0.3,0.9l0,0
		c-0.3,0.3-0.7,0.6-1.3,0.8l0,0l0,0c-0.5,0.3-1,0.4-1.5,0.4l0,0l0,0c-0.8,0-1.2-0.6-1.2-1.7l0,0l0,0c0-0.5,0.1-1.3,0.3-2.3l0,0l0,0
		c0.2-1,0.3-1.7,0.3-2l0,0l0,0c0-0.3-0.1-0.4-0.2-0.4l0,0l0,0c-0.2,0-0.5,0.1-0.8,0.4l0,0l0,0c-0.5,2.4-0.7,4.1-0.7,5l0,0l0,0.5l0,0
		c-1,0.3-1.9,0.5-2.8,0.5l0,0l0,0c-0.1,0-0.1-0.2-0.1-0.6l0,0l0,0c0-0.8,0.3-2.7,0.9-5.8l0,0l0,0c0.6-3.1,0.9-5.1,0.9-6.2l0,0l0,0
		c0-0.3,0-0.6-0.1-0.9l0,0l0,0c1-0.3,1.9-0.5,2.7-0.5l0,0l0,0C22.7,0.6,22.7,1,22.7,1.4z M30,7.2L30,7.2L30,7.2
		c0,0.6-0.1,1.4-0.4,2.6l0,0l0,0c-0.3,1.2-0.4,1.9-0.4,2.3l0,0l0,0c0,0.4,0.1,0.5,0.2,0.5l0,0l0,0c0.1,0,0.3-0.1,0.6-0.2l0,0
		l0.1-0.1l0.3,0.9l0,0c-0.3,0.3-0.8,0.6-1.3,0.9l0,0l0,0c-0.5,0.3-1,0.4-1.4,0.4l0,0l0,0c-0.4,0-0.7-0.1-1-0.4l0,0l0,0
		c-0.2-0.3-0.4-0.7-0.4-1.3l0,0l0,0c0-0.5,0.1-1.4,0.4-2.5l0,0l0,0c0.2-1.1,0.4-1.8,0.4-2.1l0,0l0,0c0-0.5-0.1-0.9-0.4-1.3l0,0
		l-0.1-0.2l0-0.3l0,0c0.5-0.2,1.5-0.3,3-0.3l0,0l0,0C29.9,6.2,30,6.6,30,7.2z M28.9,4.5L28.9,4.5L28.9,4.5c-0.5,0-0.8-0.1-1.1-0.4
		l0,0l0,0c-0.3-0.3-0.4-0.7-0.4-1.2l0,0l0,0c0-0.5,0.2-0.9,0.5-1.2l0,0l0,0c0.3-0.3,0.7-0.5,1.2-0.5l0,0l0,0c0.5,0,0.8,0.1,1.1,0.4
		l0,0l0,0c0.3,0.3,0.4,0.6,0.4,1.1l0,0l0,0c0,0.5-0.2,0.9-0.5,1.2l0,0l0,0C29.7,4.4,29.4,4.5,28.9,4.5z M31.4,14.4L31.4,14.4H31l0,0
		c0-0.9,0.1-2.1,0.4-3.7l0,0l0,0C31.7,9,31.8,8.1,31.8,8l0,0l0,0c0-0.2,0-0.4-0.1-0.6l0,0l0,0c-0.1-0.2-0.2-0.4-0.3-0.5l0,0
		l-0.1-0.2l0-0.3l0,0c0.6-0.2,1.6-0.4,3.1-0.4l0,0l0,0c0.1,0.3,0.2,0.6,0.2,0.9l0,0l0,0c0.9-0.7,1.6-1.1,2.2-1.1l0,0l0,0
		c0.3,0,0.6,0.1,0.8,0.3l0,0l0,0c0.2,0.2,0.4,0.5,0.5,0.8l0,0l0,0c0.8-0.8,1.6-1.2,2.3-1.2l0,0l0,0c0.5,0,0.8,0.2,1.1,0.5l0,0l0,0
		c0.3,0.3,0.4,0.8,0.4,1.3l0,0l0,0c0,0.5-0.1,1.3-0.3,2.3l0,0l0,0c-0.2,1.1-0.3,1.8-0.3,2.1l0,0l0,0c0,0.3,0,0.5,0.1,0.5l0,0
		l0.8-0.2l0.3,0.9l0,0c-0.3,0.3-0.7,0.6-1.2,0.8l0,0l0,0c-0.5,0.3-1,0.4-1.4,0.4l0,0l0,0c-0.9,0-1.3-0.5-1.3-1.6l0,0l0,0
		c0-0.5,0.1-1.3,0.3-2.4l0,0l0,0c0.2-1.1,0.3-1.8,0.3-2l0,0l0,0c0-0.2-0.1-0.4-0.2-0.4l0,0l0,0c-0.2,0-0.4,0.1-0.7,0.3l0,0l0,0
		c0,0.2-0.1,0.6-0.2,1.4l0,0l0,0c-0.3,1.6-0.4,3-0.4,4.3l0,0l0,0c-0.5,0.2-1.4,0.3-2.7,0.3l0,0l0,0c0-0.1,0-0.5,0-1l0,0l0,0
		c0-0.5,0.1-1.4,0.3-2.7l0,0l0,0c0.2-1.3,0.3-2.1,0.3-2.3l0,0l0,0c0-0.2-0.1-0.3-0.2-0.3l0,0l0,0c-0.2,0-0.4,0.1-0.7,0.3l0,0l0,0
		c0,0.2-0.1,0.8-0.3,1.6l0,0l0,0c-0.3,1.8-0.5,3.2-0.5,4l0,0l0,0C33.3,14.3,32.5,14.4,31.4,14.4z M50.2,6.6L50.2,6.6
		c-0.2,0.8-0.4,1.8-0.5,2.9l0,0l0,0c-0.2,1.1-0.2,1.9-0.2,2.4l0,0l0,0c0,0.4,0.1,0.7,0.2,0.7l0,0l0.8-0.3l0.3,0.9l0,0
		c-0.3,0.3-0.7,0.6-1.2,0.9l0,0l0,0c-0.5,0.3-0.9,0.4-1.3,0.4l0,0l0,0c-0.7,0-1.1-0.3-1.2-1l0,0l0,0c-0.8,0.7-1.5,1-2.1,1l0,0l0,0
		c-0.6,0-1.1-0.3-1.4-0.8l0,0l0,0c-0.3-0.6-0.5-1.3-0.5-2.4l0,0l0,0c0-1.4,0.3-2.7,0.9-3.7l0,0l0,0C44.3,6.4,45,5.9,46,5.9l0,0l0,0
		c0.5,0,1,0.2,1.6,0.6l0,0l0,0c0.1-0.2,0.1-0.4,0.2-0.5l0,0l0,0C48.5,6,49.3,6.2,50.2,6.6L50.2,6.6z M45.6,11L45.6,11L45.6,11
		c0,0.6,0,1,0.1,1.2l0,0l0,0c0.1,0.2,0.2,0.2,0.4,0.2l0,0l0,0c0.2,0,0.4-0.1,0.5-0.3l0,0l0,0c0-1.5,0.2-3,0.6-4.6l0,0l0,0
		c-0.2-0.1-0.3-0.2-0.5-0.2l0,0l0,0c-0.2,0-0.4,0.1-0.5,0.4l0,0l0,0c-0.2,0.3-0.3,0.6-0.4,1l0,0l0,0C45.7,9.7,45.6,10.4,45.6,11z
		 M54.9,13.2L54.9,13.2c-0.3,0.3-0.7,0.7-1.3,0.9l0,0l0,0c-0.5,0.3-1,0.4-1.4,0.4l0,0l0,0c-0.4,0-0.8-0.2-1-0.5l0,0l0,0
		c-0.3-0.3-0.4-0.7-0.4-1.3l0,0l0,0c0-0.6,0.3-2.2,0.8-4.8l0,0l0,0C52,5.2,52.3,3.3,52.3,2l0,0l0,0c0-0.3,0-0.6-0.1-1.1l0,0l0,0
		c0.9-0.3,1.9-0.5,2.7-0.5l0,0l0,0c0.1,0.2,0.1,0.5,0.1,1l0,0l0,0c0,0.9-0.3,2.7-0.8,5.6l0,0l0,0c-0.5,2.9-0.8,4.5-0.8,5l0,0l0,0
		c0,0.4,0.1,0.7,0.2,0.7l0,0l0,0c0.1,0,0.3-0.1,0.6-0.2l0,0l0.2-0.1L54.9,13.2z M62.7,6.6L62.7,6.6c-0.2,0.8-0.4,1.8-0.5,2.9l0,0
		l0,0c-0.2,1.1-0.2,1.9-0.2,2.4l0,0l0,0c0,0.4,0.1,0.7,0.2,0.7l0,0l0.8-0.3l0.3,0.9l0,0c-0.3,0.3-0.7,0.6-1.2,0.9l0,0l0,0
		c-0.5,0.3-0.9,0.4-1.3,0.4l0,0l0,0c-0.7,0-1.1-0.3-1.2-1l0,0l0,0c-0.8,0.7-1.5,1-2.1,1l0,0l0,0c-0.6,0-1.1-0.3-1.4-0.8l0,0l0,0
		c-0.3-0.6-0.5-1.3-0.5-2.4l0,0l0,0c0-1.4,0.3-2.7,0.9-3.7l0,0l0,0c0.6-1.1,1.3-1.6,2.3-1.6l0,0l0,0c0.5,0,1.1,0.2,1.6,0.6l0,0l0,0
		c0.1-0.2,0.1-0.4,0.2-0.5l0,0l0,0C61,6,61.8,6.2,62.7,6.6L62.7,6.6z M58.1,11L58.1,11L58.1,11c0,0.6,0,1,0.1,1.2l0,0l0,0
		c0.1,0.2,0.2,0.2,0.4,0.2l0,0l0,0c0.2,0,0.4-0.1,0.6-0.3l0,0l0,0c0-1.5,0.2-3,0.6-4.6l0,0l0,0c-0.2-0.1-0.3-0.2-0.5-0.2l0,0l0,0
		c-0.2,0-0.4,0.1-0.5,0.4l0,0l0,0c-0.2,0.3-0.3,0.6-0.3,1l0,0l0,0C58.2,9.7,58.1,10.4,58.1,11z M70.4,6L70.4,6h0.1l0,0
		c-0.1,0.3-0.1,1-0.3,2.1l0,0l0,0c-0.3,2.5-0.6,4.3-0.9,5.6l0,0l0,0c-0.8,3.2-2,4.7-3.7,4.7l0,0l0,0c-0.5,0-0.9-0.1-1.2-0.4l0,0l0,0
		c-0.3-0.3-0.5-0.6-0.5-1l0,0l0,0c0-0.4,0.1-0.8,0.2-1.1l0,0l0,0c0.2-0.3,0.4-0.5,0.7-0.7l0,0l0,0c0.5-0.3,1.2-0.6,2-0.8l0,0l0,0
		c0.1-0.5,0.1-0.8,0.2-0.9l0,0l0,0c-0.8,0.5-1.5,0.8-2.2,0.8l0,0l0,0c-1,0-1.4-0.6-1.4-1.8l0,0l0,0c0-0.4,0.1-1.2,0.3-2.4l0,0l0,0
		C63.9,8.9,64,8,64,7.6l0,0l0,0c0-0.5,0-0.8-0.1-1l0,0l0,0c1.2-0.3,2.1-0.5,2.8-0.5l0,0l0,0c0.1,0.1,0.1,0.4,0.1,0.9l0,0l0,0
		c0,0.4-0.1,1.3-0.3,2.6l0,0l0,0c-0.2,1.3-0.3,2-0.3,2.3l0,0l0,0c0,0.4,0.2,0.6,0.5,0.6l0,0l0,0c0.2,0,0.4-0.1,0.6-0.2l0,0l0,0
		c0.1-0.6,0.2-1.6,0.3-2.9l0,0l0,0c0.1-1.3,0.2-2.2,0.3-2.7l0,0l0,0c0.3-0.2,0.7-0.3,1.2-0.4l0,0l0,0C69.5,6.1,70,6,70.4,6z
		 M65,16.6L65,16.6L65,16.6c0,0.3,0.2,0.4,0.5,0.4l0,0l0,0c0.2,0,0.3-0.1,0.6-0.4l0,0l0,0c0.3-0.3,0.5-0.6,0.6-1.1l0,0l0,0
		C65.5,15.8,65,16.2,65,16.6z M78.3,6.6L78.3,6.6c-0.2,0.8-0.4,1.8-0.5,2.9l0,0l0,0c-0.2,1.1-0.2,1.9-0.2,2.4l0,0l0,0
		c0,0.4,0.1,0.7,0.2,0.7l0,0l0.8-0.3l0.3,0.9l0,0c-0.3,0.3-0.7,0.6-1.2,0.9l0,0l0,0c-0.5,0.3-0.9,0.4-1.3,0.4l0,0l0,0
		c-0.7,0-1.1-0.3-1.2-1l0,0l0,0c-0.8,0.7-1.5,1-2.1,1l0,0l0,0c-0.6,0-1.1-0.3-1.4-0.8l0,0l0,0c-0.3-0.6-0.5-1.3-0.5-2.4l0,0l0,0
		c0-1.4,0.3-2.7,0.9-3.7l0,0l0,0c0.6-1.1,1.3-1.6,2.3-1.6l0,0l0,0c0.5,0,1.1,0.2,1.6,0.6l0,0l0,0c0.1-0.2,0.1-0.4,0.2-0.5l0,0l0,0
		C76.6,6,77.4,6.2,78.3,6.6L78.3,6.6z M73.7,11L73.7,11L73.7,11c0,0.6,0,1,0.1,1.2l0,0l0,0c0.1,0.2,0.2,0.2,0.4,0.2l0,0l0,0
		c0.2,0,0.4-0.1,0.6-0.3l0,0l0,0c0-1.5,0.2-3,0.6-4.6l0,0l0,0c-0.2-0.1-0.3-0.2-0.5-0.2l0,0l0,0c-0.2,0-0.4,0.1-0.5,0.4l0,0l0,0
		c-0.2,0.3-0.3,0.6-0.4,1l0,0l0,0C73.8,9.7,73.7,10.4,73.7,11z"/>
</g>
<g id="_x34_589d52c-9370-497c-98de-3e73feb24ff9" transform="matrix(2.231859038973828,0,0,2.231859038973828,29.73344544086709,105.25122797134806)">
	
		<linearGradient id="SVGID_1_" gradientUnits="userSpaceOnUse" x1="-369.021" y1="260.2939" x2="-368.0913" y2="260.2939" gradientTransform="matrix(62.3007 15.5632 29.0513 -33.3754 15430.2793 14445.4961)">
		<stop  offset="0" style="stop-color:#D0E90D"/>
		<stop  offset="1" style="stop-color:#1536F1"/>
	</linearGradient>
	<path class="st1" d="M25.4,13.2L24,15.6l6.2,3.6L24,22.7l1.4,2.3l8.1-4.8V18C33.5,18,25.4,13.2,25.4,13.2z M12.9,13.2L4.8,18v2.3
		l8.1,4.8l1.4-2.3l-6.2-3.6l6.2-3.6C14.3,15.6,12.9,13.2,12.9,13.2z M15.7,26l2.7,0.6l3.3-14.2L19,11.8L15.7,26z"/>
</g>
</svg>
